PathFileType	4	(X/Y/Z)	OpenSim_Sub07_EMGStiffKnee_Gyro.trc
DataRate	CameraRate	NumFrames	NumMarkers	Units	OrigDataRate	OrigDataStartFrame	OrigNumFrames
100	100	27	8	m	100	6465	7388
Frame#	Time	torso_imu_offset_imu	pelvis_imu_offset_imu	tibia_r_imu_offset_imu	femur_r_imu_offset_imu	tibia_l_imu_offset_imu	femur_l_imu_offset_imu	toes_r_imu_offset_imu	toes_l_imu_offset_imu
				X1	Y1	Z1	X2	Y2	Z2	X3	Y3	Z3	X4	Y4	Z4	X5	Y5	Z5	X6	Y6	Z6	X7	Y7	Z7	X8		Y8	Z8	

6465	64.64000000	-0.23475752	-0.21263657	0.19376699	0.38380746	-0.15396505	0.10688353	0.15535890	0.19131358	0.59419398	0.13111673	-0.02393744	-0.47342381	0.32250204	0.35652746	1.25316383	0.01511519	-0.11081943	0.37940755	-0.57037309	0.76968987	1.62670725	0.08320948	-0.71148083	0.16128601
6466	64.65000000	-0.24586791	-0.27363060	0.19161697	0.32404105	-0.12296871	0.09757812	0.51166132	-0.09621848	0.25550505	0.36366129	-0.18605890	-0.37480817	0.33958013	0.37587345	1.33470201	0.01766841	-0.07416598	0.34879363	1.41828314	-1.42720737	1.49362809	0.08799112	-0.80049398	0.14554297
6467	64.66000000	-0.21201709	-0.31592822	0.18007028	0.27007131	-0.13108956	0.09499250	0.52376303	-0.48509558	-0.12992050	0.09114429	-0.53331675	-0.23237359	0.35768543	0.41964848	1.41664797	-0.04388177	-0.02235328	0.31720941	2.14964161	-2.40682456	0.77796041	0.08481397	-1.06907840	0.11600699
6468	64.67000000	-0.17915854	-0.32948885	0.18050760	0.29188949	-0.13951180	0.07350646	1.17068017	-0.46732592	-0.92906716	-0.44343915	-0.87218871	-0.09484793	0.36956922	0.46099354	1.49554040	-0.12141292	0.05058845	0.26619232	0.65497210	-3.33285781	0.25644766	0.14163564	-1.33751313	0.06740213
6469	64.68000000	-0.17798760	-0.33287076	0.17185619	0.29353632	-0.10420246	0.04058919	2.35095297	-0.53978523	-1.45580756	0.05217813	-1.27802519	-0.11312524	0.40375600	0.47225647	1.62000566	-0.16263784	0.13346855	0.22462296	0.36859889	-3.07241826	0.28591658	0.22183678	-1.46687373	0.01407221
6470	64.69000000	-0.17170789	-0.34875492	0.13908599	0.21914830	-0.08700426	0.05707271	0.53696465	-1.42745197	-1.11475014	1.09517888	-1.40830826	-0.34985003	0.42444808	0.49855057	1.74041693	-0.20427579	0.21036288	0.11275045	0.37448395	-2.75681644	0.34629436	0.32888607	-1.71444332	-0.01130343
6471	64.70000000	-0.12576477	-0.35223572	0.10917487	0.16900339	-0.11559726	0.09848273	-1.33060618	-1.39969955	-0.72619752	0.88608586	-0.56431248	-0.61425826	0.41338379	0.53124904	1.84597281	-0.25766655	0.28481877	-0.08248930	-0.12526951	-3.53022945	0.28782191	0.32149575	-2.16022996	0.02890080
6472	64.71000000	-0.09915369	-0.31476773	0.10732999	0.21502253	-0.15168551	0.11437156	0.47228569	-0.38070364	-0.75321211	-0.04889776	0.19261041	-0.58856398	0.44266337	0.49037825	1.98905081	-0.25217489	0.37634985	-0.31201023	1.05032033	-2.94278585	-0.01854086	0.11861576	-2.46191170	0.13370342
6473	64.72000000	-0.10105558	-0.25828832	0.12212486	0.23929288	-0.12994173	0.15780088	2.09211926	-0.29592925	-0.93246414	-0.63925628	-0.03204675	-0.22509612	0.46976983	0.40040348	2.18499226	-0.16947973	0.54968334	-0.54740332	2.16226991	-1.38873453	-0.40331898	-0.11649465	-2.69051229	0.30722033
6474	64.73000000	-0.09189931	-0.20045380	0.12860921	0.20883185	-0.10073552	0.19557836	2.40027470	-0.30962047	-1.14842827	-0.42675697	-0.35035250	-0.10912463	0.51522978	0.34276546	2.35118253	-0.00780370	0.73971115	-0.77352113	0.71169381	-0.44064675	-0.16348342	-0.29344232	-3.27990025	0.52211993
6475	64.74000000	-0.10497755	-0.16274699	0.14487664	0.25161390	-0.11546739	0.18943132	2.54202859	-0.17274321	-1.43608776	0.32730214	-0.01729577	-0.28785049	0.54648293	0.29835748	2.43462376	0.22165724	0.87668857	-0.97834270	0.97334386	-0.64294174	-0.15025369	-0.23084427	-3.94321899	0.72735938
6476	64.75000000	-0.14510609	-0.13375613	0.16565426	0.35629970	-0.12034996	0.18311889	1.90348557	-0.26706121	-1.40406092	0.87473704	0.26670573	-0.32678221	0.56128238	0.23516103	2.55197265	0.28027648	0.97139748	-1.15255416	0.05895567	-0.19192555	-0.02054380	0.03136572	-4.28809514	1.01697103
6477	64.76000000	-0.19474886	-0.10717602	0.19093808	0.44757445	-0.09479914	0.17671577	1.47644143	-0.25887741	-0.95956918	0.82105255	0.12212836	-0.28009852	0.60499547	0.14860332	2.64640747	0.01802924	0.98986640	-1.25616787	0.13308289	-0.14204512	0.02619328	0.20581740	-4.33677051	1.34830186
6478	64.77000000	-0.25274254	-0.09010710	0.22040885	0.51195858	-0.07221241	0.17411830	0.61333046	-0.71592722	-0.54639958	0.45347921	0.27742647	-0.44443380	0.67641360	0.15116110	2.66131748	-0.30031454	0.92870278	-1.29370728	0.11857545	-0.10997210	0.03825925	0.10423329	-4.44436876	1.50584368
6479	64.78000000	-0.31935821	-0.08631837	0.24468889	0.51757314	-0.06054648	0.19819227	-0.59737662	-1.14030154	-0.65547253	0.23148405	0.31352186	-0.86200526	0.79001575	0.26877887	2.66544433	-0.28476922	0.91096778	-1.28959907	0.06582228	-0.02137717	0.04733607	0.51955290	-4.45792632	1.39702180
6480	64.79000000	-0.37366265	-0.08997081	0.27010240	0.46455200	-0.04660615	0.23101535	-1.03758481	-1.08976242	-0.97549262	0.05596860	0.17659703	-1.27178935	0.99111228	0.34960292	2.65630646	0.07905941	0.96429365	-1.26108296	0.06733615	-0.01154216	0.04163803	1.94604925	-4.23787732	1.32309454
6481	64.80000000	-0.41901355	-0.09895126	0.29465482	0.37298283	-0.04219639	0.26530166	-0.96584988	-1.11210732	-0.96250977	0.01218779	0.23245611	-1.52572349	1.27782909	0.34808495	2.60935710	0.39450151	0.97897798	-1.21215162	0.04139509	0.01346598	0.05648191	1.16993218	-3.36350545	1.53118383
6482	64.81000000	-0.44851743	-0.10457800	0.31308355	0.28710153	-0.04587313	0.26551797	-0.57946816	-0.89275345	-0.56478309	-0.03194576	0.25818063	-1.51507962	1.44219576	0.28519932	2.47734806	0.42361034	0.88281427	-1.10635893	0.01169461	0.03199035	0.05913926	-0.91090902	-1.70348037	1.59892542
6483	64.82000000	-0.44834697	-0.11388587	0.30475554	0.21487514	-0.06145283	0.21511500	0.02519872	-0.48851634	-0.25132910	-0.11792293	0.28125263	-1.31736733	1.53529278	0.12791124	2.30202708	0.25682338	0.71310639	-0.95948911	0.00358623	-0.01868982	0.05939083	-1.08031209	-0.66329090	2.07660754
6484	64.83000000	-0.43724217	-0.12375885	0.29357285	0.15442896	-0.09043927	0.12428019	0.23795584	-0.30751511	-0.27453121	-0.18388028	0.31825611	-1.19759688	1.81874867	-0.00424905	2.03187491	0.22445091	0.54314340	-0.85416514	0.01489604	-0.03441631	0.04335920	0.15188452	-0.33728230	3.02156393
6485	64.84000000	-0.43814875	-0.13690978	0.29263226	0.13000837	-0.11456173	-0.00275623	0.11009505	-0.27737039	-0.38304368	-0.27338461	0.30895506	-1.14989404	2.47639415	-0.12187119	1.42589449	0.20308768	0.45445061	-0.77626758	0.01448429	-0.04643746	0.03305021	2.48336088	1.01094704	3.68558048
6486	64.85000000	-0.45216043	-0.14686691	0.28299462	0.14036899	-0.12027896	-0.13603245	-0.17539047	-0.32168494	-0.33775644	-0.33178238	0.32505266	-1.16050838	3.27505549	-0.41703031	0.42216690	0.07150888	0.46815334	-0.70818542	0.00812821	-0.08085954	0.02365699	2.62725714	2.00525816	4.17402064
6487	64.86000000	-0.47004508	-0.15366601	0.26307472	0.16629549	-0.12316230	-0.26174118	-0.51406819	-0.39915653	-0.22979414	-0.31731446	0.33089472	-1.22729922	3.76107495	-0.78234808	-0.40383858	0.06738061	0.49400649	-0.66902024	0.02128119	-0.09246659	0.00111060	1.65129474	1.92194772	4.34466241
6488	64.87000000	-0.48593455	-0.15674227	0.22574274	0.20231167	-0.11806771	-0.35870629	-0.64306245	-0.42960669	-0.22021132	-0.26023923	0.30519614	-1.26614571	4.11228394	-0.94142854	-0.77321135	0.16843461	0.47629117	-0.66415619	0.03688873	-0.07103751	-0.03044620	1.41020493	2.10924475	4.01617954
6489	64.88000000	-0.50675174	-0.14655620	0.17525042	0.23993589	-0.09195349	-0.41084665	-0.51670498	-0.33522945	-0.27653300	-0.19046707	0.31302708	-1.26736864	4.30444521	-0.88397210	-1.03287859	0.20573009	0.45548262	-0.65012265	0.04986642	-0.06044596	-0.05676242	1.78484668	2.34318439	3.29902780
6490	64.89000000	-0.52153308	-0.12984142	0.13833031	0.26629593	-0.05482747	-0.42540427	-0.33208646	-0.20201363	-0.25385364	-0.19701938	0.34449876	-1.27021898	4.18111333	-0.81195404	-1.29666580	0.24919637	0.43049325	-0.62353119	0.05887945	-0.07100099	-0.08060189	1.81448937	2.31509465	2.39550892
6491	64.90000000	-0.52821911	-0.11235656	0.11158674	0.28179634	-0.01524084	-0.41356634	-0.19382050	-0.17797008	-0.19702257	-0.27753694	0.36947912	-1.27661254	3.57293656	-0.82281763	-1.46016278	0.34020235	0.41730980	-0.61865901	0.06699017	-0.04122841	-0.10028540	1.58974540	2.09097601	1.45070532
